<svg xmlns="http://www.w3.org/2000/svg" viewBox="-14 -14 332 298" fill="none">
  <path fill="#E72229" d="M263.821 85.4588C264.228 85.4349 264.637 85.4272 265.045 85.4358C280.467 85.7865 278.982 101.433 278.774 112.215C287.998 112.032 300.278 109.62 303.956 120.49C305.163 124.02 304.883 127.889 303.181 131.208C301.608 134.296 299.121 136.507 295.827 137.58C284.8 138.572 264.125 137.9 252.184 138.004C252.344 128.784 250.549 98.5361 253.898 91.7806C255.842 87.8611 259.975 86.7463 263.821 85.4588Z"/>
  <g fill="#111111">
    <path d="M76.7441 88.1514C85.7502 88.0433 86.5024 101.192 79.244 105.897C78.917 105.897 78.5903 105.879 78.2654 105.843C71.0207 105.046 70.6558 92.8044 76.7441 88.1514Z"/>
    <path d="M0 116.191C1.78834 108.538 3.70415 104.083 10.9303 99.662C20.3877 93.8755 31.6488 92.8893 41.3502 87.27C50.2844 82.095 50.3326 73.6917 57.6796 67.3495C67.1988 59.1872 79.6419 54.0027 87.8669 44.2551C90.3165 40.8604 91.6531 35.3077 92.6255 31.4482C95.0026 22.0133 103.351 -2.15595 116.561 1.10575C129.613 4.32865 137.687 29.6246 141.817 40.7027C146.592 53.5157 150.849 65.1768 156.434 77.5445C168.28 104.352 178.629 116.689 207.85 123.886C210.797 124.642 213.802 125.148 216.833 125.399C222.991 125.867 229.443 124.557 233.397 130.713C236.382 135.36 232.618 140.372 228.752 142.846C211.71 145.212 194.173 140.365 179.201 132.365C147.073 115.199 138.505 76.3491 126.643 44.9125C123.858 37.5337 120.493 25.1015 114.473 19.9767C105.391 29.478 108.288 45.0425 102.412 53.6251C99.8062 57.4309 79.1129 66.7532 73.0365 72.1783C66.2054 78.2772 64.4042 87.6038 57.8473 93.5775C50.7192 100.071 39.8519 104.845 31.218 109.07C27.9839 110.653 23.2062 112.307 20.6267 114.794C19.5077 115.872 19.5578 116.826 19.5868 118.304C19.7016 124.144 24.6508 131.018 28.8345 134.934C42.495 147.721 84.7345 146.694 95.0746 155.897C99.0138 159.402 99.9477 163.888 100.145 168.94C100.69 182.939 100.187 197.12 100.21 211.139C100.229 222.182 101.453 237.478 99.3374 248.064C98.4456 252.528 96.4354 256.675 93.3164 260.006C87.658 266.049 80.3998 268.17 72.6326 270L59.0427 270C52.1887 268.061 45.5854 267.615 39.4498 263.09C35.6025 260.253 33.5469 254.861 36.7692 250.738C42.0898 244.241 50.172 251.219 56.0928 252.564C65.6218 254.728 80.6302 256.063 81.0418 242.406C81.3367 232.621 81.0631 222.787 81.1087 212.974L81.2123 186.575C81.2211 182.522 81.4398 175.223 80.882 171.461C80.1872 170.183 76.7617 168.866 75.2143 168.462C57.0704 163.72 31.3881 159.557 16.8722 147.531C10.2622 142.055 2.56789 124.427 0 116.664L0 116.191Z"/>
    <path d="M255.365 270C247.935 267.779 242.014 266.015 235.506 261.529C202.067 238.483 203.664 179.351 240.09 159.734C251.342 153.752 264.483 152.399 276.718 155.961C323.209 169.919 327.227 242.507 285.39 264.623C280.69 267.108 275.376 268.588 270.283 270L255.365 270ZM268.532 252.162C310.191 243.252 306.109 168.448 258.624 171.781C213.59 180.003 221.625 258.833 268.532 252.162Z"/>
    <path d="M149.39 270C136.71 266.879 128.145 267.15 120.253 254.002C113.772 243.204 114.838 230.32 114.822 218.19L114.796 187.447C114.794 181.668 114.73 175.863 114.798 170.086C114.86 164.714 113.831 159.233 119.234 156.12C121.105 155.028 123.336 154.734 125.426 155.304C134.137 157.735 131.717 176.037 131.698 183.392L131.624 219.808C131.633 242.22 130.099 252.961 157.432 253.077C184.547 253.193 182.092 238.35 182.061 216.16L182.007 180.864C181.999 175.043 181.722 165.734 182.333 160.157C185.594 155.8 189.914 153.232 195.321 156.584C196.95 157.593 198.269 160.445 198.517 162.311C199.06 172.71 198.831 183.986 198.818 194.384L198.783 220.259C198.753 239.793 198.468 260.33 175.818 267.521C172.013 268.729 167.405 268.887 163.859 270L149.39 270Z"/>
  </g>
</svg>
